<?xml version="1.0" encoding="UTF-8"?>
<svg width="42px" height="36px" viewBox="0 0 42 36" version="1.1" xmlns="http://www.w3.org/2000/svg" xmlns:xlink="http://www.w3.org/1999/xlink">
    <title>编组</title>
    <g id="页面-1" stroke="none" stroke-width="1" fill="none" fill-rule="evenodd">
        <g id="设置" transform="translate(-34.000000, -143.000000)" fill="#222222" fill-rule="nonzero">
            <g id="编组" transform="translate(55.000000, 161.000000) scale(-1, 1) translate(-55.000000, -161.000000) translate(34.000000, 143.000000)">
                <path d="M24.9461629,35.4666667 C24.2917354,35.4573337 23.705784,35.0573346 23.4565863,34.4497058 C23.2073886,33.842077 23.3429209,33.1438014 23.8011299,32.674584 L38.5638767,17.8524561 C38.6645626,17.7555878 38.7233086,17.6228776 38.7274528,17.4829293 C38.7259164,17.3746295 38.6818209,17.2713262 38.6047707,17.1955196 L24.3327524,2.82503545 C23.6890756,2.17876951 23.6890756,1.13096539 24.3327524,0.484699454 C24.9764292,-0.161566485 26.0200356,-0.161566485 26.6637124,0.484699454 L40.9357307,14.8141251 C41.6383736,15.5205477 42.0225498,16.4848515 41.9989756,17.4829293 C41.9825335,18.4892781 41.5710232,19.4484122 40.8539426,20.1517335 L26.0911959,35.01492 C25.7825921,35.3093259 25.3718334,35.4713445 24.9461629,35.4666667 L24.9461629,35.4666667 Z" id="路径"></path>
                <path d="M39.4305445,19.6 L1.63612219,19.6 C0.732516854,19.6 0,18.7642649 0,17.7333333 C0,16.7024018 0.732516854,15.8666667 1.63612219,15.8666667 L39.4305445,15.8666667 C40.3341498,15.8666667 41.0666667,16.7024018 41.0666667,17.7333333 C41.0666667,18.7642649 40.3341498,19.6 39.4305445,19.6 L39.4305445,19.6 Z" id="路径"></path>
            </g>
        </g>
    </g>
</svg>